PathFileType  4	(X/Y/Z) C:\Users\antoi\Documents\MyRepositories\mobilecap\ResultsAnalysis
DataRate	CameraRate	NumFrames	NumMarkers	Units	OrigDataRate	OrigDataStartFrame	OrigNumFrames
100.0	100.0	4	51	mm	100.0	1092	1747
Frame#	Time	r_knee			r_shank_antsup			r_ankle			r_calc			r_5meta			r_toe			L_knee			L_shank_antsup			L_ankle			L_calc			L_5meta			L_toe			r_sh2			r_sh3			r_sh4			L_sh2			L_sh3			r_thigh1			r_thigh2			r_thigh3			r_thigh4			r_thigh5			L_thigh1			L_thigh2			L_thigh3			L_thigh4			r.ASIS			r.PSIS			L.ASIS			L.PSIS			C7			R_Shoulder			L_Shoulder			R_Sternum			L_Sternum			R_humerus			R_elbow_med			R_elbow_lat			R_forearm			R_wrist_radius			R_wrist_ulna			L_humerus			L_elbow_med			L_elbow_lat			L_forearm			L_wrist_radius			L_wrist_ulna			R_HJC			L_HJC			R_HJC_reg			L_HJC_reg			
		X1	Y1	Z1	X2	Y2	Z2	X3	Y3	Z3	X4	Y4	Z4	X5	Y5	Z5	X6	Y6	Z6	X7	Y7	Z7	X8	Y8	Z8	X9	Y9	Z9	X10	Y10	Z10	X11	Y11	Z11	X12	Y12	Z12	X13	Y13	Z13	X14	Y14	Z14	X15	Y15	Z15	X16	Y16	Z16	X17	Y17	Z17	X18	Y18	Z18	X19	Y19	Z19	X20	Y20	Z20	X21	Y21	Z21	X22	Y22	Z22	X23	Y23	Z23	X24	Y24	Z24	X25	Y25	Z25	X26	Y26	Z26	X27	Y27	Z27	X28	Y28	Z28	X29	Y29	Z29	X30	Y30	Z30	X31	Y31	Z31	X32	Y32	Z32	X33	Y33	Z33	X34	Y34	Z34	X35	Y35	Z35	X36	Y36	Z36	X37	Y37	Z37	X38	Y38	Z38	X39	Y39	Z39	X40	Y40	Z40	X41	Y41	Z41	X42	Y42	Z42	X43	Y43	Z43	X44	Y44	Z44	X45	Y45	Z45	X46	Y46	Z46	X47	Y47	Z47	X48	Y48	Z48	X49	Y49	Z49	X50	Y50	Z50	X51	Y51	Z51	

1092	10.91000000	-205.45319	519.09499	-370.01862	-143.94748	405.13008	-378.12505	-285.89711	97.30124	-405.96675	-347.39567	64.96381	-463.67459	-166.61279	38.42838	-340.36399	-118.58325	65.06486	-405.08379	-199.18974	512.57038	-917.07049	-125.11155	423.94492	-903.15007	-245.72616	91.54548	-891.55459	-313.00532	66.96268	-846.87031	-105.83468	35.27582	-907.71017	-79.54494	63.34387	-838.13961	-159.99608	293.22028	-406.64365	-211.78819	403.01413	-340.19535	-220.18604	286.06795	-348.31248	-206.93100	430.52492	-942.24136	-198.54256	307.50193	-948.30781	-423.57922	629.48320	-460.49820	-310.89518	630.28131	-437.54547	-298.05348	604.93064	-376.92845	-435.95340	555.84517	-373.88929	-317.01087	554.29326	-359.43532	-441.23913	609.08942	-868.88851	-305.57552	616.55125	-889.90092	-443.05318	507.26554	-917.10037	-305.77393	512.78085	-933.28924	-548.20856	621.84313	-533.17949	-716.65609	623.92630	-603.98168	-536.47007	605.54265	-804.46023	-716.87347	619.92272	-698.22466	-404.44620	1069.50486	-646.31377	-385.04385	969.02582	-471.29138	-349.45754	999.40847	-803.98335	-323.54501	924.34973	-619.17210	-323.30068	926.20971	-665.63972	-404.09230	843.01892	-363.55420	-520.67083	646.83266	-303.27198	-467.83132	696.92798	-241.59948	-372.01190	751.79020	-363.19011	-304.57242	777.36896	-456.02314	-273.89217	748.11810	-448.87658	-294.91190	898.02480	-910.97413	-304.59217	689.63253	-1028.76202	-235.68092	750.83150	-1029.98994	-256.05100	788.85437	-874.50052	-240.89152	802.65629	-758.74561	-209.55707	766.65545	-757.77825	-593.92082	529.62313	-558.66794	-596.42805	507.87115	-770.94170	-596.91176	527.01093	-567.85995	-597.32259	519.39209	-747.22888	
1093	10.92000000	-201.85704	517.96694	-370.93619	-140.63760	403.52265	-378.99702	-284.92617	97.04799	-406.70591	-346.82081	64.86393	-464.35519	-166.58843	38.46414	-340.32665	-118.09940	64.22545	-405.12378	-196.92794	511.68645	-918.05516	-122.68461	422.83145	-904.28477	-245.36986	91.28806	-891.59454	-313.16901	67.09662	-846.56454	-105.78400	35.09054	-907.93822	-79.28396	63.00814	-838.33287	-157.37778	291.77353	-407.57178	-208.36874	401.95911	-340.74908	-217.47960	284.92946	-349.13384	-204.54003	429.80599	-943.19410	-196.79902	307.40251	-949.91522	-419.41238	631.12200	-459.84948	-306.57256	630.69813	-437.14256	-293.89462	604.80609	-376.49467	-432.09397	556.98501	-374.33276	-313.38091	554.05060	-359.71603	-438.22748	610.74290	-870.10550	-302.74136	616.88373	-891.50127	-441.04661	508.30374	-916.94916	-303.83330	512.45871	-933.56150	-543.26728	627.06402	-535.66700	-708.60708	632.65104	-602.21467	-535.97948	610.23833	-807.03193	-708.98583	628.45875	-697.41239	-388.83422	1069.94680	-644.34799	-370.45998	969.16603	-470.47537	-333.91526	1000.14467	-802.22501	-308.93093	924.69556	-618.32483	-308.29671	926.36772	-663.79402	-392.86844	843.19219	-363.22970	-517.33603	650.67546	-303.42119	-461.93898	698.84170	-241.88186	-365.26973	750.79026	-364.19605	-298.88997	774.82039	-457.90287	-268.96883	744.60701	-450.94879	-281.65066	898.15367	-909.23307	-297.78898	692.39660	-1031.94078	-226.80965	751.59171	-1031.48095	-248.18392	788.57011	-876.26163	-233.51546	801.23025	-760.02920	-203.61653	764.04313	-759.18841	-588.74405	535.71678	-559.84701	-595.54802	513.86163	-772.01536	-594.85637	533.27072	-570.22360	-595.57287	525.37252	-749.55100	
1094	10.93000000	-197.44144	516.42523	-371.74193	-137.05898	401.82312	-379.78587	-284.17563	96.85047	-407.44053	-346.29667	64.77134	-464.91738	-166.61875	38.56796	-340.30763	-117.72041	63.50909	-405.14138	-193.80952	510.65678	-918.79240	-119.84979	421.49058	-905.26218	-245.04243	91.03428	-891.81689	-313.13686	67.14032	-846.27056	-105.72945	34.85674	-908.15563	-79.08083	62.49616	-838.56271	-154.67058	290.16649	-408.64783	-204.77570	400.78488	-341.40518	-214.86516	283.92630	-349.83026	-201.62344	428.86431	-944.16275	-194.40427	307.16921	-951.32528	-413.94369	633.14140	-459.04006	-301.09742	631.06894	-436.45863	-288.62643	604.07925	-376.36278	-427.18470	558.08418	-374.87096	-308.75000	553.40721	-360.16732	-434.25807	612.70188	-871.95750	-298.84732	616.95115	-893.27818	-438.17835	509.24595	-916.48115	-300.98794	511.87592	-933.74350	-538.70996	632.30592	-537.00402	-700.37545	641.50361	-600.92989	-533.50771	615.03946	-808.33265	-701.04221	637.17035	-696.86626	-373.93299	1070.92073	-642.59472	-356.38598	969.66215	-469.48515	-319.04728	1001.07204	-800.24932	-294.99113	925.51134	-617.15309	-294.23927	927.06849	-662.14389	-381.71707	843.60569	-363.04556	-512.63689	653.31241	-303.84585	-455.73375	700.52044	-242.67548	-358.25830	749.47363	-365.53679	-292.55195	772.19699	-459.69357	-263.30211	741.41107	-452.31213	-268.83587	898.16927	-907.97354	-291.26715	695.44604	-1034.77807	-218.44564	752.15912	-1032.61400	-239.82197	788.13525	-877.61947	-225.52761	799.22365	-760.88097	-197.16586	760.77294	-760.50137	-584.10052	541.85944	-560.32134	-593.50148	520.02841	-772.38333	-592.18878	539.66902	-571.34404	-593.43545	531.57018	-750.62936	
1095	10.94000000	-192.35037	514.65329	-372.60609	-133.16250	400.11779	-380.45179	-283.53726	96.81334	-408.02424	-345.83117	64.75432	-465.30415	-166.64907	38.64238	-340.27785	-117.37430	62.87578	-405.16032	-189.97179	509.70065	-919.49552	-116.57523	420.12993	-906.12628	-244.65908	90.82191	-892.21910	-312.71052	67.03244	-846.26180	-105.67798	34.60156	-908.35297	-78.92683	62.00713	-838.82478	-151.88596	288.50551	-409.59244	-200.94712	399.63659	-342.22617	-212.21078	283.07927	-350.48271	-198.24520	427.91958	-945.07194	-191.68098	306.29975	-951.78542	-407.46394	635.35854	-457.82630	-294.58635	631.41053	-435.63469	-282.44826	603.20163	-376.40583	-421.67244	558.98504	-375.05209	-303.04472	552.58427	-360.79072	-429.35734	614.77938	-873.69430	-293.89041	616.95207	-895.29673	-434.43454	510.18453	-915.72009	-297.26936	511.09006	-933.63332	-534.36224	637.61176	-537.47045	-691.93484	650.59674	-599.82246	-529.68498	619.73412	-808.72808	-693.02307	646.10073	-696.66111	-359.96695	1072.53605	-641.30754	-342.99307	970.59335	-468.51717	-305.07898	1002.25030	-798.10557	-281.74317	926.89351	-615.76528	-281.04414	928.40080	-661.23441	-370.94261	844.14506	-363.07159	-507.99864	657.16659	-304.38755	-449.20210	702.36641	-243.59161	-350.96050	748.19455	-366.96557	-285.65875	769.69222	-461.23834	-257.33382	738.09742	-453.97487	-256.61317	897.95376	-906.64321	-285.23927	698.71680	-1037.27802	-210.57626	752.62386	-1033.39800	-231.16788	787.72352	-878.39595	-217.16777	796.69515	-761.46650	-190.43777	757.07023	-761.54423	-579.94407	548.12712	-560.20610	-590.75471	526.26727	-772.20027	-589.14212	546.24644	-571.49891	-591.15294	537.92591	-750.73810	
